# xmcd CD database file
#
# Track frame offsets:
#	150
#	7620
#	24708
#	55240
#	80247
#	101247
#	106699
#	134852
#	159959
#	173546
#	179932
#	191418
#	225821
#	245461
#	270301
#	290773
#	307634
#	328039
#
# Disc length: 4799 seconds
#
# Revision: 3
# Processed by: cddbd v1.4PL0 Copyright (c) Steve Scherf et al.
# Submitted via: CDex 1.40Release
#
DISCID=e912bd12
DTITLE=Pink Floyd - collection 2000
DYEAR=2000
DGENRE=Rock
TTITLE0=The Happiest Days of our Lives
TTITLE1=Another Brick in the Wall part 2
TTITLE2=Time
TTITLE3=Wish You Were Here
TTITLE4=Hey You
TTITLE5=Get Your Filthy Hands Off My Desert
TTITLE6=Money
TTITLE7=On the Turning Away
TTITLE8=In the Flesh?
TTITLE9=Pigs On The Wing (Part Two)
TTITLE10=Goodbye Blue Sky
TTITLE11=Us And Them
TTITLE12=What Do You Want From Me
TTITLE13=Mother
TTITLE14=Learning to Fly
TTITLE15=Waiting For The Worms
TTITLE16=The great gig in the sky
TTITLE17=High Hopes
EXTD=YEAR: 2000 ID3G: 17
EXTT0=
EXTT1=
EXTT2=
EXTT3=
EXTT4=
EXTT5=
EXTT6=
EXTT7=
EXTT8=
EXTT9=
EXTT10=
EXTT11=
EXTT12=
EXTT13=
EXTT14=
EXTT15=
EXTT16=
EXTT17=
PLAYORDER=
